<svg id="圖層_1" data-name="圖層 1" xmlns="http://www.w3.org/2000/svg" viewBox="0 0 604 206"><defs><style>.cls-1{fill:#319bd0;}.cls-2{fill:#fff;}.cls-3{fill:#adc71c;}</style></defs><rect class="cls-1" x="2.35" y="1.29" width="196.85" height="203.32"/><path class="cls-2" d="M84.23,203.68a12.53,12.53,0,0,1-1.82.93H2.35s-.64-.39.77-.93C143.86,149.62,184.19,10.33,184.19,10.33s-52.49,154.84-100,193.35"/><path class="cls-2" d="M199.2,162.41a5.82,5.82,0,0,1,.24,1.52l-.24,40.68-13.8.1-.1-1C174.53,96.42,107.68,17.51,107.68,17.51s39.45,40.89,91.52,144.9"/><path class="cls-2" d="M2,173.15s66.89,14,116.1,2c63-15.45,81.25-68.57,81.25-68.57h0C140.43,190.25,2,173.15,2,173.15"/><path class="cls-3" d="M116.58,162.77c26-6,54.24-26.88,54.24-26.88s2.13-1.65-18-45.15Z"/><path class="cls-1" d="M294.13,92.08a3.55,3.55,0,0,1-3,1.87,5.18,5.18,0,0,1-3.5-1.75c-.39-.39-1.28-1.44-2.66-3.14H245.7c-1.57,1.83-2.44,2.85-2.66,3a5,5,0,0,1-3.4,1.84,3.59,3.59,0,0,1-2.47-1.06A3.19,3.19,0,0,1,236,90.54a5.61,5.61,0,0,1,1.45-3.3c.8-.93,1.62-1.85,2.49-2.77l11-13c2-2.38,4-4.75,5.89-7.16,2.34-2.76,4.45-5,6.29-6.89a3.13,3.13,0,0,1,2.23-.74,3.45,3.45,0,0,1,2.13.64,16.26,16.26,0,0,1,2.81,2.86c.84,1.06,1.71,2.13,2.55,3.18q.79,1,10.53,12.24,8,9.27,10.86,13.14a2.41,2.41,0,0,1,.52,1.48,3.1,3.1,0,0,1-.64,1.81m-28.87-26-13.11,15.5h26.41Z"/><path class="cls-1" d="M353.45,64.17H308.64c-2,.68-3,2-3,3.84s1,3,3,3.6h37.53a11.87,11.87,0,0,1,7.15,3.87,10.94,10.94,0,0,1,2.74,7.45,10.31,10.31,0,0,1-2.71,7.3A12.5,12.5,0,0,1,346.2,94H300.92q-2.76-1.23-2.76-3.72c0-1.6.92-2.83,2.76-3.72h44.72q3-.9,3-3.62t-3-3.82H308.1a12,12,0,0,1-7.2-3.71A10.53,10.53,0,0,1,298.16,68,10.87,10.87,0,0,1,301,60.37a11.63,11.63,0,0,1,7.49-3.64h44.41c2.18.46,3.29,1.7,3.29,3.72a3.9,3.9,0,0,1-2.77,3.72"/><path class="cls-1" d="M416.39,92.7a3.66,3.66,0,0,1-2.51,1.24H375.6a13.69,13.69,0,0,1-3.31-.85,23.89,23.89,0,0,1-3.43-1.33A18.25,18.25,0,0,1,363,86.69a19.61,19.61,0,0,1-3.4-6.94,18.8,18.8,0,0,1-.42-4.42A19.86,19.86,0,0,1,362,65.51,28.57,28.57,0,0,1,365.82,61a16,16,0,0,1,4.79-2.87A14.74,14.74,0,0,1,376,56.73h38.07a3.41,3.41,0,0,1,2.47,1.19,3.66,3.66,0,0,1,1.14,2.54,3.89,3.89,0,0,1-1.06,2.44,2.9,2.9,0,0,1-2.18,1.27H376.19a8.78,8.78,0,0,0-2,.64,12.1,12.1,0,0,0-2,.9,10.79,10.79,0,0,0-5.37,9.62A11.09,11.09,0,0,0,368.91,82a10.66,10.66,0,0,0,5.69,4l1.75.53H410V79.05H372.58a2.86,2.86,0,0,1-2.2-1.27,3.83,3.83,0,0,1-1.05-2.45,3.91,3.91,0,0,1,1.05-2.41,2.86,2.86,0,0,1,2.2-1.31h41.3a3.68,3.68,0,0,1,2.51,1.23,3.43,3.43,0,0,1,1.27,2.39v15.1a3.47,3.47,0,0,1-1.27,2.37"/><path class="cls-1" d="M478.47,92.08a3.55,3.55,0,0,1-3,1.87A5.18,5.18,0,0,1,472,92.2c-.39-.39-1.28-1.44-2.67-3.14H430c-1.57,1.83-2.44,2.85-2.66,3A5,5,0,0,1,424,94a3.56,3.56,0,0,1-2.47-1.06,3.19,3.19,0,0,1-1.15-2.35,5.61,5.61,0,0,1,1.45-3.3c.79-.93,1.64-1.85,2.49-2.77l11-13c2-2.38,4-4.75,5.9-7.16,2.35-2.76,4.43-5,6.27-6.89a3.16,3.16,0,0,1,2.24-.74,3.45,3.45,0,0,1,2.13.64,16.26,16.26,0,0,1,2.81,2.86l2.56,3.18c.52.64,4,4.73,10.52,12.24q8,9.27,10.86,13.14a2.41,2.41,0,0,1,.52,1.48,3.1,3.1,0,0,1-.64,1.81m-28.87-26-13.14,15.5H462.9Z"/><path class="cls-1" d="M539.6,92.48a3.45,3.45,0,0,1-2.71,1.44,4.32,4.32,0,0,1-2.24-.68q-12.28-7.36-24-14.16h-20.8v12.1A4.07,4.07,0,0,1,486,93.92c-1.67,0-2.92-.9-3.78-2.73V60.43a3.27,3.27,0,0,1,1.32-2.52,4.13,4.13,0,0,1,2.76-1.16h43.81q5.53.69,8.09,4.21a10.7,10.7,0,0,1,2.39,6.75,12.37,12.37,0,0,1-2.92,7.72,11.54,11.54,0,0,1-7.73,3.65h-5c3.85,2.28,8.4,4.89,13.69,7.88a3.36,3.36,0,0,1,2,3.08,3.84,3.84,0,0,1-.95,2.44M529.71,64.2H489.82v7.44h39.94A2.61,2.61,0,0,0,532,70.53a4.15,4.15,0,0,0,.82-2.49q0-3.47-3.08-3.84"/><path class="cls-1" d="M601.36,80.28a19.44,19.44,0,0,1-5.31,8.77,17.71,17.71,0,0,1-9.21,4.68l-.94.16a.73.73,0,0,1,.27-.11c-1-.21-1.55-.53-1.55-1s.38-.82,1.11-1.27a.61.61,0,0,1-.21-.06v2.39H547.25a3.6,3.6,0,0,1-2.46-1.27,3.55,3.55,0,0,1-1.26-2.39V60.43A3.3,3.3,0,0,1,544.88,58a4.24,4.24,0,0,1,2.72-1.17h37.54c2.31,0,5,.95,8,2.85s5,3.87,6,5.92C601.05,68,602,71.28,602,75.39a18,18,0,0,1-.64,4.89M592.6,69.1a10.14,10.14,0,0,0-5.89-4.35l-1.92-.52H551.17V86.45h33.48a8.6,8.6,0,0,0,2-.54,11.1,11.1,0,0,0,5.65-4.06,10.9,10.9,0,0,0,2-6.55,11.48,11.48,0,0,0-1.75-6.2"/><path class="cls-3" d="M327.55,126.6H293.4a2.93,2.93,0,0,0-2.31,2.9,2.76,2.76,0,0,0,2.31,2.76H322a9.12,9.12,0,0,1,5.46,3,8.28,8.28,0,0,1,2.07,5.69,7.83,7.83,0,0,1-2,5.54,9.46,9.46,0,0,1-5.46,2.83H287.53a3,3,0,0,1-2.1-2.83,3.12,3.12,0,0,1,2.1-2.83H321.6a2.75,2.75,0,0,0,2.3-2.76,2.89,2.89,0,0,0-2.31-2.9H293a9.13,9.13,0,0,1-5.5-2.83,8,8,0,0,1-2.08-5.62,8.22,8.22,0,0,1,2.19-5.81,8.93,8.93,0,0,1,5.71-2.77h33.83a2.73,2.73,0,0,1,2.51,2.83,3,3,0,0,1-2.12,2.85"/><path class="cls-3" d="M377.21,126.47q-4.09,2.19-17.38,10.21v10.13a2.7,2.7,0,0,1-3,2.42,3,3,0,0,1-2.89-2.06V136.68L351,135q-4.69-2.81-14.22-8.28c-1.54-.87-2.31-1.81-2.31-2.81a2.68,2.68,0,0,1,1-2.05,3.28,3.28,0,0,1,2.16-.89,2.42,2.42,0,0,1,1.27.34q2.1,1.38,17.9,10.59c.83-.43,1.85-1,3-1.73l15-8.82a2.52,2.52,0,0,1,1.46-.38,2.48,2.48,0,0,1,1.46.37,2.57,2.57,0,0,1,1.29,2.29,3.14,3.14,0,0,1-1.9,2.85"/><path class="cls-3" d="M426.08,126.6H391.93a2.91,2.91,0,0,0-2.3,2.9,2.74,2.74,0,0,0,2.3,2.76h28.61a9.07,9.07,0,0,1,5.44,3,8.34,8.34,0,0,1,2.08,5.69,7.83,7.83,0,0,1-2.05,5.54,9.49,9.49,0,0,1-5.46,2.83H386.07a3,3,0,0,1-2.12-2.83,3.11,3.11,0,0,1,2.12-2.83h34.07a2.75,2.75,0,0,0,2.29-2.76,2.89,2.89,0,0,0-2.3-2.9H391.52a9.21,9.21,0,0,1-5.49-2.83A8.09,8.09,0,0,1,384,129.5a8.27,8.27,0,0,1,2.19-5.81,9,9,0,0,1,5.71-2.77h33.84a2.73,2.73,0,0,1,2.51,2.83,3,3,0,0,1-2.12,2.85"/><path class="cls-3" d="M475.38,126.67H458.27v20.47a3.1,3.1,0,0,1-5.83,0V126.67H435.3a3,3,0,0,1-2.14-2.83c0-1.52.83-2.45,2.51-2.83H475a2.67,2.67,0,0,1,2.51,2.86,2.91,2.91,0,0,1-2.14,2.8"/><path class="cls-3" d="M524.73,149.27H485.24a2.85,2.85,0,0,1-1.88-.94,2.63,2.63,0,0,1-1-1.84V123.72a2.54,2.54,0,0,1,1-1.91,3.18,3.18,0,0,1,2.08-.89h38.82c1.69.35,2.56,1.3,2.56,2.83a3,3,0,0,1-2.19,2.85H488.2v5.67h36.5a3.07,3.07,0,0,1,2.15,2.76,3.37,3.37,0,0,1-2.12,2.92H488.2v5.66h36.5a3.06,3.06,0,0,1,2.15,2.78,3.32,3.32,0,0,1-2.12,2.88"/><path class="cls-3" d="M573.19,148.31a2.63,2.63,0,0,1-3-2.45v-18c-3.59,2.15-8.81,5.14-15.67,9a.94.94,0,0,1-.28,0,8.37,8.37,0,0,1-3.72-1.43l-13.13-7.67v18a2.66,2.66,0,0,1-2.94,2.42,2.94,2.94,0,0,1-2.9-2.06V122.16a2.7,2.7,0,0,1,2.67-2,4.24,4.24,0,0,1,2.39.8c2.29,1.49,5.12,3.18,8.51,5.11l8.62,4.9,17.27-10.06c.22-.13.68-.37,1.33-.75a3.27,3.27,0,0,1,.89-.12,3,3,0,0,1,2,.74,2.26,2.26,0,0,1,.92,1.8v23.26a2.68,2.68,0,0,1-3,2.45"/></svg>